<svg width="30" height="30" viewBox="0 0 30 30" fill="none" xmlns="http://www.w3.org/2000/svg">
<path d="M0 23.4375V6.5625C0 5.81658 0.296316 5.10121 0.823762 4.57376C1.35121 4.04632 2.06658 3.75 2.8125 3.75H27.1875C27.9334 3.75 28.6488 4.04632 29.1762 4.57376C29.7037 5.10121 30 5.81658 30 6.5625V23.4375C30 24.1834 29.7037 24.8988 29.1762 25.4262C28.6488 25.9537 27.9334 26.25 27.1875 26.25H2.8125C2.06658 26.25 1.35121 25.9537 0.823762 25.4262C0.296316 24.8988 0 24.1834 0 23.4375H0ZM4.6875 7.5C4.43886 7.5 4.2004 7.59877 4.02459 7.77459C3.84877 7.9504 3.75 8.18886 3.75 8.4375V14.0625C3.75 14.3111 3.84877 14.5496 4.02459 14.7254C4.2004 14.9012 4.43886 15 4.6875 15C4.93614 15 5.1746 14.9012 5.35041 14.7254C5.52623 14.5496 5.625 14.3111 5.625 14.0625V9.375H10.3125C10.5611 9.375 10.7996 9.27623 10.9754 9.10041C11.1512 8.9246 11.25 8.68614 11.25 8.4375C11.25 8.18886 11.1512 7.9504 10.9754 7.77459C10.7996 7.59877 10.5611 7.5 10.3125 7.5H4.6875ZM25.3125 22.5C25.5611 22.5 25.7996 22.4012 25.9754 22.2254C26.1512 22.0496 26.25 21.8111 26.25 21.5625V15.9375C26.25 15.6889 26.1512 15.4504 25.9754 15.2746C25.7996 15.0988 25.5611 15 25.3125 15C25.0639 15 24.8254 15.0988 24.6496 15.2746C24.4738 15.4504 24.375 15.6889 24.375 15.9375V20.625H19.6875C19.4389 20.625 19.2004 20.7238 19.0246 20.8996C18.8488 21.0754 18.75 21.3139 18.75 21.5625C18.75 21.8111 18.8488 22.0496 19.0246 22.2254C19.2004 22.4012 19.4389 22.5 19.6875 22.5H25.3125Z" fill="#545454"/>
</svg>
