<svg width="37" height="32" viewBox="0 0 37 32" fill="none" xmlns="http://www.w3.org/2000/svg">
    <path fill-rule="evenodd" clip-rule="evenodd" d="M11.7142 1H24.5713C25.708 1 26.7981 1.45153 27.6018 2.25526C28.4055 3.05898 28.857 4.14907 28.857 5.28571V26.7143C28.857 27.8509 28.4055 28.941 27.6018 29.7447C26.7981 30.5485 25.708 31 24.5713 31H11.7142C10.5775 31 9.48745 30.5485 8.68372 29.7447C7.88 28.941 7.42847 27.8509 7.42847 26.7143V5.28571C7.42847 4.14907 7.88 3.05898 8.68372 2.25526C9.48745 1.45153 10.5775 1 11.7142 1V1ZM28.857 6.35714H30.9999C32.1365 6.35714 33.2266 6.80867 34.0304 7.6124C34.8341 8.41613 35.2856 9.50621 35.2856 10.6429V21.3571C35.2856 22.4938 34.8341 23.5839 34.0304 24.3876C33.2266 25.1913 32.1365 25.6429 30.9999 25.6429H28.857V6.35714Z" stroke="#555555" stroke-width="2" stroke-linecap="round" stroke-linejoin="round"/>
    <path fill-rule="evenodd" clip-rule="evenodd" d="M7.42857 6.35718H5.28571C4.14907 6.35718 3.05898 6.80871 2.25526 7.61243C1.45153 8.41616 1 9.50625 1 10.6429V21.3572C1 22.4938 1.45153 23.5839 2.25526 24.3876C3.05898 25.1914 4.14907 25.6429 5.28571 25.6429H7.42857V6.35718Z" stroke="#555555" stroke-width="2" stroke-linecap="round" stroke-linejoin="round"/>
</svg>
