<svg width="32" height="32" viewBox="0 0 32 32" fill="none" xmlns="http://www.w3.org/2000/svg">
    <g clip-path="url(#clip0)">
    <path d="M28.704 17.6H20.8V14.4H28.704C28.3494 11.5787 27.0655 8.95578 25.0549 6.94513C23.0442 4.93448 20.4213 3.65057 17.6 3.296V11.2H14.4V3.296C11.5787 3.65057 8.95578 4.93448 6.94513 6.94513C4.93448 8.95578 3.65057 11.5787 3.296 14.4H11.2V17.6H3.296C3.65057 20.4213 4.93448 23.0442 6.94513 25.0549C8.95578 27.0655 11.5787 28.3494 14.4 28.704V20.8H17.6V28.704C20.4213 28.3494 23.0442 27.0655 25.0549 25.0549C27.0655 23.0442 28.3494 20.4213 28.704 17.6V17.6ZM16 32C11.7565 32 7.68687 30.3143 4.68629 27.3137C1.68571 24.3131 0 20.2435 0 16C0 11.7565 1.68571 7.68687 4.68629 4.68629C7.68687 1.68571 11.7565 0 16 0C20.2435 0 24.3131 1.68571 27.3137 4.68629C30.3143 7.68687 32 11.7565 32 16C32 20.2435 30.3143 24.3131 27.3137 27.3137C24.3131 30.3143 20.2435 32 16 32Z" fill="#545454"/>
    </g>
    <defs>
    <clipPath id="clip0">
    <rect width="32" height="32" fill="white"/>
    </clipPath>
    </defs>
</svg>
