<svg width="41" height="41" viewBox="0 0 41 41" fill="none" xmlns="http://www.w3.org/2000/svg">
    <path d="M20.4999 2.92847C30.2037 2.92847 38.0713 10.7961 38.0713 20.4999C38.0713 30.2037 30.2037 38.0713 20.4999 38.0713C10.7961 38.0713 2.92847 30.2037 2.92847 20.4999C2.92847 10.7961 10.7961 2.92847 20.4999 2.92847ZM20.4999 5.1249C12.0085 5.1249 5.1249 12.0085 5.1249 20.4999C5.1249 28.9913 12.0085 35.8749 20.4999 35.8749C28.9913 35.8749 35.8749 28.9913 35.8749 20.4999C35.8749 12.0085 28.9913 5.1249 20.4999 5.1249ZM20.4999 11.7142C20.7912 11.7142 21.0705 11.8299 21.2764 12.0358C21.4824 12.2418 21.5981 12.5211 21.5981 12.8124V19.4017H28.1874C28.4787 19.4017 28.758 19.5174 28.964 19.7233C29.1699 19.9293 29.2856 20.2086 29.2856 20.4999C29.2856 20.7912 29.1699 21.0705 28.964 21.2764C28.758 21.4824 28.4787 21.5981 28.1874 21.5981H21.5981V28.1874C21.5981 28.4787 21.4824 28.758 21.2764 28.964C21.0705 29.1699 20.7912 29.2856 20.4999 29.2856C20.2086 29.2856 19.9293 29.1699 19.7233 28.964C19.5174 28.758 19.4017 28.4787 19.4017 28.1874V21.5981H12.8124C12.5211 21.5981 12.2418 21.4824 12.0358 21.2764C11.8299 21.0705 11.7142 20.7912 11.7142 20.4999C11.7142 20.2086 11.8299 19.9293 12.0358 19.7233C12.2418 19.5174 12.5211 19.4017 12.8124 19.4017H19.4017V12.8124C19.4017 12.5211 19.5174 12.2418 19.7233 12.0358C19.9293 11.8299 20.2086 11.7142 20.4999 11.7142Z" fill="#555555"/>
</svg>
