<svg width="34" height="34" viewBox="0 0 34 34" fill="none" xmlns="http://www.w3.org/2000/svg">
    <path d="M10.6707 15.3622C10.5702 15.2639 10.4902 15.1467 10.4353 15.0173C10.3805 14.888 10.3518 14.749 10.351 14.6085C10.3502 14.4679 10.3773 14.3287 10.4307 14.1987C10.4841 14.0687 10.5627 13.9506 10.6621 13.8512C10.7615 13.7518 10.8795 13.6731 11.0095 13.6197C11.1395 13.5663 11.2788 13.5392 11.4193 13.5399C11.5598 13.5407 11.6988 13.5694 11.8282 13.6242C11.9576 13.6791 12.0748 13.759 12.1731 13.8595L15.9375 17.6229V5.3125C15.9375 5.03071 16.0494 4.76046 16.2487 4.5612C16.448 4.36194 16.7182 4.25 17 4.25C17.2818 4.25 17.552 4.36194 17.7513 4.5612C17.9506 4.76046 18.0625 5.03071 18.0625 5.3125V17.6229L21.8269 13.8595C21.9252 13.759 22.0424 13.6791 22.1718 13.6242C22.3012 13.5694 22.4402 13.5407 22.5807 13.5399C22.7212 13.5392 22.8605 13.5663 22.9905 13.6197C23.1205 13.6731 23.2385 13.7518 23.3379 13.8512C23.4373 13.9506 23.5159 14.0687 23.5693 14.1987C23.6227 14.3287 23.6498 14.4679 23.649 14.6085C23.6482 14.749 23.6195 14.888 23.5647 15.0173C23.5098 15.1467 23.4298 15.2639 23.3293 15.3622L17.7512 20.939C17.5519 21.1381 17.2817 21.25 17 21.25C16.7183 21.25 16.4481 21.1381 16.2488 20.939L10.6707 15.3622ZM28.6875 19.125C28.4057 19.125 28.1355 19.2369 27.9362 19.4362C27.7369 19.6355 27.625 19.9057 27.625 20.1875V27.625H6.375V20.1875C6.375 19.9057 6.26306 19.6355 6.0638 19.4362C5.86454 19.2369 5.59429 19.125 5.3125 19.125C5.03071 19.125 4.76046 19.2369 4.5612 19.4362C4.36194 19.6355 4.25 19.9057 4.25 20.1875V27.625C4.25063 28.1884 4.47472 28.7285 4.8731 29.1269C5.27147 29.5253 5.81161 29.7494 6.375 29.75H27.625C28.1884 29.7494 28.7285 29.5253 29.1269 29.1269C29.5253 28.7285 29.7494 28.1884 29.75 27.625V20.1875C29.75 19.9057 29.6381 19.6355 29.4388 19.4362C29.2395 19.2369 28.9693 19.125 28.6875 19.125Z" fill="#545454"/>
</svg>
