<svg width="34" height="34" viewBox="0 0 34 34" fill="none" xmlns="http://www.w3.org/2000/svg">
    <path d="M17 0C7.6263 0 0 7.6263 0 17C0 26.3737 7.6263 34 17 34C26.3737 34 34 26.3737 34 17C34 7.6263 26.3737 0 17 0ZM23.1551 21.3064C23.2817 21.4266 23.3829 21.571 23.4528 21.7309C23.5226 21.8909 23.5598 22.0632 23.562 22.2377C23.5643 22.4122 23.5315 22.5854 23.4658 22.7471C23.4 22.9088 23.3025 23.0557 23.1791 23.1791C23.0557 23.3025 22.9088 23.4 22.7471 23.4658C22.5854 23.5315 22.4122 23.5643 22.2377 23.562C22.0632 23.5598 21.8909 23.5226 21.7309 23.4528C21.571 23.3829 21.4266 23.2817 21.3064 23.1551L17 18.8496L12.6936 23.1551C12.4464 23.39 12.1172 23.519 11.7762 23.5147C11.4352 23.5103 11.1094 23.3729 10.8682 23.1318C10.6271 22.8906 10.4897 22.5648 10.4853 22.2238C10.481 21.8828 10.61 21.5536 10.8449 21.3064L15.1504 17L10.8449 12.6936C10.61 12.4464 10.481 12.1172 10.4853 11.7762C10.4897 11.4352 10.6271 11.1094 10.8682 10.8682C11.1094 10.6271 11.4352 10.4897 11.7762 10.4853C12.1172 10.481 12.4464 10.61 12.6936 10.8449L17 15.1504L21.3064 10.8449C21.5536 10.61 21.8828 10.481 22.2238 10.4853C22.5648 10.4897 22.8906 10.6271 23.1318 10.8682C23.3729 11.1094 23.5103 11.4352 23.5147 11.7762C23.519 12.1172 23.39 12.4464 23.1551 12.6936L18.8496 17L23.1551 21.3064Z" fill="#545454"/>
</svg>
