<svg width="34" height="34" viewBox="0 0 34 34" fill="none" xmlns="http://www.w3.org/2000/svg">
    <path d="M24.4374 5.66675L24.2957 5.67666C24.0408 5.71096 23.807 5.83653 23.6377 6.03009C23.4683 6.22366 23.375 6.47207 23.3749 6.72925V24.7096L18.8132 20.1507L18.6942 20.0487C18.4786 19.8885 18.2102 19.8158 17.9432 19.8455C17.6762 19.8751 17.4303 20.0047 17.2551 20.2084C17.0798 20.412 16.9882 20.6745 16.9987 20.9429C17.0091 21.2114 17.1209 21.4659 17.3115 21.6552L23.6922 28.0302L23.8112 28.1322C24.0159 28.2834 24.268 28.3561 24.5217 28.3372C24.7755 28.3182 25.014 28.2088 25.1939 28.0288L31.5646 21.6538L31.6666 21.5348C31.8182 21.3301 31.8911 21.0776 31.8721 20.8236C31.8531 20.5695 31.7435 20.3307 31.5632 20.1507L31.4442 20.0487C31.2394 19.8972 30.987 19.8242 30.7329 19.8432C30.4789 19.8622 30.2401 19.9719 30.0601 20.1522L25.4999 24.7152V6.72925L25.4914 6.58475C25.4564 6.33038 25.3306 6.09726 25.1371 5.9285C24.9436 5.75974 24.6955 5.66676 24.4388 5.66675H24.4374ZM8.80303 5.97841L2.43653 12.3463L2.33311 12.4653C2.18194 12.67 2.10923 12.9221 2.12821 13.1759C2.14718 13.4296 2.25659 13.6681 2.43653 13.848L2.55553 13.9514C2.7602 14.1026 3.01232 14.1753 3.26606 14.1563C3.5198 14.1373 3.7583 14.0279 3.9382 13.848L8.49562 9.28916V27.278L8.50695 27.4225C8.54187 27.6769 8.66771 27.91 8.86121 28.0787C9.05471 28.2475 9.30278 28.3405 9.55953 28.3405L9.70261 28.3306C9.95724 28.296 10.1907 28.1703 10.3597 27.9767C10.5288 27.7832 10.622 27.535 10.622 27.278L10.6206 9.292L15.1865 13.8494L15.3055 13.9514C15.5213 14.1097 15.7888 14.1807 16.0547 14.1503C16.3205 14.1199 16.5651 13.9903 16.7396 13.7874C16.914 13.5845 17.0055 13.3232 16.9957 13.0558C16.9859 12.7884 16.8756 12.5345 16.6868 12.3449L10.3061 5.97841L10.1857 5.87641C9.98103 5.72524 9.72891 5.65253 9.47517 5.67151C9.22143 5.69048 8.98293 5.79989 8.80303 5.97983V5.97841Z" fill="#555555"/>
</svg>
