<svg width="32" height="32" viewBox="0 0 32 32" fill="none" xmlns="http://www.w3.org/2000/svg">
<path d="M30 28V16C29.9995 15.4697 29.7886 14.9613 29.4136 14.5864C29.0387 14.2114 28.5303 14.0005 28 14H16C15.4697 14.0005 14.9613 14.2114 14.5864 14.5864C14.2114 14.9613 14.0005 15.4697 14 16V28C14.0005 28.5303 14.2114 29.0387 14.5864 29.4136C14.9613 29.7886 15.4697 29.9995 16 30H28C28.5303 29.9995 29.0387 29.7886 29.4136 29.4136C29.7886 29.0387 29.9995 28.5303 30 28Z" fill="#545454"/>
<path d="M15 2L13.59 3.41L16.17 6H11C9.14413 6.00212 7.36489 6.7403 6.05259 8.05259C4.7403 9.36489 4.00212 11.1441 4 13V18H6V13C6.00159 11.6744 6.52888 10.4036 7.46622 9.46622C8.40356 8.52888 9.6744 8.00159 11 8H16.17L13.59 10.59L15 12L20 7L15 2Z" fill="#545454"/>
</svg>
