<svg width="32" height="32" viewBox="0 0 32 32" fill="none" xmlns="http://www.w3.org/2000/svg">
<path d="M2 28V16C2.00053 15.4697 2.21141 14.9613 2.58637 14.5864C2.96133 14.2114 3.46973 14.0005 4 14H16C16.5303 14.0005 17.0387 14.2114 17.4136 14.5864C17.7886 14.9613 17.9995 15.4697 18 16V28C17.9995 28.5303 17.7886 29.0387 17.4136 29.4136C17.0387 29.7886 16.5303 29.9995 16 30H4C3.46973 29.9995 2.96133 29.7886 2.58637 29.4136C2.21141 29.0387 2.00053 28.5303 2 28Z" fill="#545454"/>
<path d="M17 2L18.41 3.41L15.83 6H21C22.8559 6.00212 24.6351 6.7403 25.9474 8.05259C27.2597 9.36489 27.9979 11.1441 28 13V18H26V13C25.9984 11.6744 25.4711 10.4036 24.5338 9.46622C23.5964 8.52888 22.3256 8.00159 21 8H15.83L18.41 10.59L17 12L12 7L17 2Z" fill="#545454"/>
</svg>
