<svg width="33" height="33" viewBox="0 0 33 33" fill="none" xmlns="http://www.w3.org/2000/svg">
    <path fill-rule="evenodd" clip-rule="evenodd" d="M7.6999 11C7.40816 11 7.12838 11.1159 6.92209 11.3222C6.7158 11.5284 6.5999 11.8082 6.5999 12.1V25.3C6.5999 25.5917 6.7158 25.8715 6.92209 26.0778C7.12838 26.2841 7.40816 26.4 7.6999 26.4H25.2999C25.5916 26.4 25.8714 26.2841 26.0777 26.0778C26.284 25.8715 26.3999 25.5917 26.3999 25.3V12.1C26.3999 11.8082 26.284 11.5284 26.0777 11.3222C25.8714 11.1159 25.5916 11 25.2999 11H22.5499C22.2582 11 21.9784 10.8841 21.7721 10.6778C21.5658 10.4715 21.4499 10.1917 21.4499 9.89997C21.4499 9.60823 21.5658 9.32844 21.7721 9.12215C21.9784 8.91586 22.2582 8.79997 22.5499 8.79997H25.2999C26.1751 8.79997 27.0145 9.14765 27.6334 9.76652C28.2522 10.3854 28.5999 11.2248 28.5999 12.1V25.3C28.5999 26.1752 28.2522 27.0146 27.6334 27.6334C27.0145 28.2523 26.1751 28.6 25.2999 28.6H7.6999C6.82469 28.6 5.98532 28.2523 5.36645 27.6334C4.74758 27.0146 4.3999 26.1752 4.3999 25.3V12.1C4.3999 11.2248 4.74758 10.3854 5.36645 9.76652C5.98532 9.14765 6.82469 8.79997 7.6999 8.79997H10.4499C10.7416 8.79997 11.0214 8.91586 11.2277 9.12215C11.434 9.32844 11.5499 9.60823 11.5499 9.89997C11.5499 10.1917 11.434 10.4715 11.2277 10.6778C11.0214 10.8841 10.7416 11 10.4499 11H7.6999ZM15.3999 3.59917L12.2495 6.74957C12.0618 6.92444 11.8136 7.01965 11.5571 7.01512C11.3007 7.01059 11.0559 6.90669 10.8746 6.72531C10.6932 6.54392 10.5893 6.29922 10.5848 6.04274C10.5802 5.78626 10.6754 5.53804 10.8503 5.35037L15.8003 0.400369C15.9859 0.214974 16.2376 0.11084 16.4999 0.11084C16.7623 0.11084 17.0139 0.214974 17.1995 0.400369L22.1495 5.35037C22.3244 5.53804 22.4196 5.78626 22.4151 6.04274C22.4105 6.29922 22.3066 6.54392 22.1252 6.72531C21.9439 6.90669 21.6992 7.01059 21.4427 7.01512C21.1862 7.01965 20.938 6.92444 20.7503 6.74957L17.5999 3.59917V18.7C17.5999 18.9917 17.484 19.2715 17.2777 19.4778C17.0714 19.6841 16.7916 19.8 16.4999 19.8C16.2082 19.8 15.9284 19.6841 15.7221 19.4778C15.5158 19.2715 15.3999 18.9917 15.3999 18.7V3.59917Z" fill="#555555"/>
</svg>
