<svg width="40" height="40" viewBox="0 0 40 40" fill="none" xmlns="http://www.w3.org/2000/svg">
    <path d="M35.6627 26.9131L29.4128 33.162L29.4122 33.1625C29.3684 33.2062 29.3203 33.2454 29.2688 33.2796L29.2583 33.2859C29.2102 33.3172 29.1594 33.3439 29.1064 33.3659L29.0944 33.3703C29.0417 33.3913 28.9872 33.4075 28.9316 33.4185C28.9286 33.4192 28.9256 33.4193 28.9225 33.42C28.8086 33.442 28.6914 33.442 28.5775 33.42C28.5744 33.4193 28.5713 33.4192 28.5683 33.4184C28.5127 33.4073 28.4582 33.3912 28.4055 33.3703L28.3936 33.3659C28.3405 33.3439 28.2895 33.3171 28.2413 33.2857C28.2381 33.2836 28.2347 33.2818 28.2314 33.2798C28.1793 33.2452 28.1308 33.2055 28.0866 33.1614L21.837 26.9118C21.6612 26.736 21.5625 26.4975 21.5625 26.2489C21.5625 26.0002 21.6613 25.7618 21.8371 25.586C22.0129 25.4102 22.2514 25.3114 22.5001 25.3114C22.7487 25.3114 22.9872 25.4102 23.163 25.5861L27.8125 30.2356V17.499C27.8125 17.2504 27.9113 17.0119 28.0871 16.8361C28.2629 16.6603 28.5014 16.5615 28.75 16.5615C28.9986 16.5615 29.2371 16.6603 29.4129 16.8361C29.5887 17.0119 29.6875 17.2504 29.6875 17.499V30.2357L34.337 25.587C34.4238 25.4988 34.5272 25.4286 34.6413 25.3806C34.7553 25.3325 34.8778 25.3076 35.0015 25.3071C35.1253 25.3066 35.2479 25.3306 35.3623 25.3777C35.4768 25.4249 35.5807 25.4942 35.6682 25.5817C35.7557 25.6692 35.825 25.7732 35.8722 25.8877C35.9193 26.0021 35.9433 26.1247 35.9427 26.2485C35.9422 26.3722 35.9172 26.4947 35.8691 26.6087C35.8211 26.7227 35.7509 26.8261 35.6627 26.9129V26.9131ZM18.75 19.0615H7.5C7.25136 19.0615 7.0129 19.1603 6.83709 19.3361C6.66127 19.5119 6.5625 19.7504 6.5625 19.999C6.5625 20.2477 6.66127 20.4861 6.83709 20.6619C7.0129 20.8377 7.25136 20.9365 7.5 20.9365H18.7498C18.9985 20.9365 19.2369 20.8377 19.4128 20.6619C19.5886 20.4861 19.6873 20.2477 19.6873 19.999C19.6873 19.7504 19.5886 19.5119 19.4128 19.3361C19.2369 19.1603 18.9985 19.0615 18.7498 19.0615H18.75ZM7.5 10.9365H28.7498C28.9985 10.9365 29.2369 10.8378 29.4128 10.6619C29.5886 10.4861 29.6873 10.2477 29.6873 9.99902C29.6873 9.75038 29.5886 9.51193 29.4128 9.33611C29.2369 9.1603 28.9985 9.06152 28.7498 9.06152H7.5C7.25136 9.06152 7.0129 9.1603 6.83709 9.33611C6.66127 9.51193 6.5625 9.75038 6.5625 9.99902C6.5625 10.2477 6.66127 10.4861 6.83709 10.6619C7.0129 10.8378 7.25136 10.9365 7.5 10.9365ZM16.25 29.0615H7.5C7.25136 29.0615 7.0129 29.1603 6.83709 29.3361C6.66127 29.5119 6.5625 29.7504 6.5625 29.999C6.5625 30.2477 6.66127 30.4861 6.83709 30.6619C7.0129 30.8377 7.25136 30.9365 7.5 30.9365H16.25C16.4986 30.9365 16.7371 30.8377 16.9129 30.6619C17.0887 30.4861 17.1875 30.2477 17.1875 29.999C17.1875 29.7504 17.0887 29.5119 16.9129 29.3361C16.7371 29.1603 16.4986 29.0615 16.25 29.0615Z" fill="#545454"/>
</svg>
