<svg width="40" height="40" viewBox="0 0 40 40" fill="none" xmlns="http://www.w3.org/2000/svg">
    <path d="M35.6627 13.0869L29.4128 6.83801L29.4122 6.83754C29.3684 6.79384 29.3203 6.75459 29.2688 6.72036L29.2583 6.71411C29.2102 6.68284 29.1594 6.65606 29.1064 6.63411L29.0944 6.62973C29.0417 6.60869 28.9872 6.59253 28.9316 6.58145C28.9286 6.58083 28.9256 6.58067 28.9225 6.58004C28.8086 6.55798 28.6914 6.55798 28.5775 6.58004C28.5744 6.58067 28.5713 6.58082 28.5683 6.58161C28.5127 6.59265 28.4582 6.60876 28.4055 6.62973L28.3936 6.63411C28.3405 6.65609 28.2895 6.68292 28.2413 6.71426C28.2381 6.71645 28.2347 6.71817 28.2314 6.7202C28.1793 6.75479 28.1308 6.79446 28.0866 6.83864L21.837 13.0882C21.6612 13.264 21.5625 13.5025 21.5625 13.7511C21.5625 13.9998 21.6613 14.2382 21.8371 14.414C22.0129 14.5898 22.2514 14.6886 22.5001 14.6886C22.7487 14.6886 22.9872 14.5898 23.163 14.4139L27.8125 9.76442V22.501C27.8125 22.7496 27.9113 22.9881 28.0871 23.1639C28.2629 23.3397 28.5014 23.4385 28.75 23.4385C28.9986 23.4385 29.2371 23.3397 29.4129 23.1639C29.5887 22.9881 29.6875 22.7496 29.6875 22.501V9.76426L34.337 14.413C34.4238 14.5012 34.5272 14.5714 34.6413 14.6194C34.7553 14.6675 34.8778 14.6924 35.0015 14.6929C35.1253 14.6934 35.2479 14.6694 35.3623 14.6223C35.4768 14.5751 35.5807 14.5058 35.6682 14.4183C35.7557 14.3308 35.825 14.2268 35.8722 14.1123C35.9193 13.9979 35.9433 13.8753 35.9427 13.7515C35.9422 13.6278 35.9172 13.5053 35.8691 13.3913C35.8211 13.2773 35.7509 13.1739 35.6627 13.0871V13.0869ZM18.75 20.9385H7.5C7.25136 20.9385 7.0129 20.8397 6.83709 20.6639C6.66127 20.4881 6.5625 20.2496 6.5625 20.001C6.5625 19.7523 6.66127 19.5139 6.83709 19.3381C7.0129 19.1623 7.25136 19.0635 7.5 19.0635H18.7498C18.9985 19.0635 19.2369 19.1623 19.4128 19.3381C19.5886 19.5139 19.6873 19.7523 19.6873 20.001C19.6873 20.2496 19.5886 20.4881 19.4128 20.6639C19.2369 20.8397 18.9985 20.9385 18.7498 20.9385H18.75ZM7.5 29.0635H28.7498C28.9985 29.0635 29.2369 29.1622 29.4128 29.3381C29.5886 29.5139 29.6873 29.7523 29.6873 30.001C29.6873 30.2496 29.5886 30.4881 29.4128 30.6639C29.2369 30.8397 28.9985 30.9385 28.7498 30.9385H7.5C7.25136 30.9385 7.0129 30.8397 6.83709 30.6639C6.66127 30.4881 6.5625 30.2496 6.5625 30.001C6.5625 29.7523 6.66127 29.5139 6.83709 29.3381C7.0129 29.1622 7.25136 29.0635 7.5 29.0635ZM16.25 10.9385H7.5C7.25136 10.9385 7.0129 10.8397 6.83709 10.6639C6.66127 10.4881 6.5625 10.2496 6.5625 10.001C6.5625 9.75234 6.66127 9.51389 6.83709 9.33807C7.0129 9.16225 7.25136 9.06348 7.5 9.06348H16.25C16.4986 9.06348 16.7371 9.16225 16.9129 9.33807C17.0887 9.51389 17.1875 9.75234 17.1875 10.001C17.1875 10.2496 17.0887 10.4881 16.9129 10.6639C16.7371 10.8397 16.4986 10.9385 16.25 10.9385Z" fill="#545454"/>
</svg>
