<svg width="29" height="31" viewBox="0 0 29 31" fill="none" xmlns="http://www.w3.org/2000/svg">
    <path d="M14.25 0C9.88475 0 6.33333 3.55142 6.33333 7.91667C6.33333 12.2819 9.88475 15.8333 14.25 15.8333C18.6153 15.8333 22.1667 12.2819 22.1667 7.91667C22.1667 3.55142 18.6153 0 14.25 0ZM14.25 12.6667C11.6312 12.6667 9.5 10.5355 9.5 7.91667C9.5 5.29783 11.6312 3.16667 14.25 3.16667C16.8688 3.16667 19 5.29783 19 7.91667C19 10.5355 16.8688 12.6667 14.25 12.6667ZM28.5 30.0833V28.5C28.5 22.3899 23.5268 17.4167 17.4167 17.4167H11.0833C4.97167 17.4167 0 22.3899 0 28.5V30.0833H3.16667V28.5C3.16667 24.1347 6.71808 20.5833 11.0833 20.5833H17.4167C21.7819 20.5833 25.3333 24.1347 25.3333 28.5V30.0833H28.5Z" fill="#555555"/>
</svg>
